<?xml version="1.0" encoding="utf-8"?>
<!-- Generator: Adobe Illustrator 26.5.0, SVG Export Plug-In . SVG Version: 6.00 Build 0)  -->
<svg version="1.1" id="Layer_1" xmlns="http://www.w3.org/2000/svg" xmlns:xlink="http://www.w3.org/1999/xlink" x="0px" y="0px"
	 viewBox="0 0 1280 1024" style="enable-background:new 0 0 1280 1024;" xml:space="preserve">
<style type="text/css">
	.st0{fill:#FFFFFF;}
</style>
<g>
	<path class="st0" d="M656.3,290.32c-14.72,14.53-21.48,13.5-34.87,0.24c-90.91,91.77-181.81,183.53-273.95,276.53
		c1.23,3.99,10.94,5.86,11.1,14.88c0.16,8.99-8.27,11.28-10.35,15.29c25.37,26.44,50.2,52.53,75.28,78.38
		c18.14,18.69,36.58,37.1,54.96,55.55c31.56,31.67,63.32,63.16,94.59,95.12c2.92,2.98,6.75,4.57,9.23,8.08
		c3.92,5.54,4.87,11.62-0.4,15.52c-7.8,5.78-9.95,15.16-16.74,22.31c-4.8,1.35-10.05,0.9-15.3-0.14
		c-5.06-11.63-0.61-20.38,7.64-28.68c-97.23-97.17-193.33-193.22-291.22-291.05c-13.86,14.54-26.03,27.55-38.47,40.29
		c-9.12,9.34-11.26,9.06-20.71-0.16c-20.45-19.95-21.48-20.14-0.08-40.46c9.85-9.35,19.67-18.73,28.43-27.07
		c-0.55-5.31-2.79-6.45-6.55-9.73c-15.69,16.6-31.08,32.89-48.07,50.87c-9.52-9.54-18.15-17.52-25.87-26.3
		c-2.64-3-1.8-6.78,1.95-10.81c11.91-12.83,23.9-25.57,37.02-37.13c2.47-2.17,2.8-4.89,5.01-6.6c-4.69-6.88-8.54-3.74-12.52,0.29
		c-8.99,9.1-18.14,18.04-27.1,27.17c-14.9,15.18-15.08,17.87-31.58,0.36c-5.15-5.47-12.56-9.63-9.55-19.05
		c14.62-14.82,29.33-29.73,44.36-44.97c-3.27-6.13-6.59-6.09-11.75-0.65c-11.52,12.15-23.84,23.54-35.42,35.64
		c-5.87,6.14-10.42,6.55-16.57,0.24c-6.73-6.92-14.48-12.86-20.72-18.29c3.18-10.88,9.84-14.62,14.66-19.71
		c9.39-9.9,19.18-19.42,28.88-29.03c3.59-3.56,5.4-6.81-0.87-10.06c-14.91,11.79-27.23,26.55-41,39.79
		c-9.11,8.75-11.81,8.8-20.64-0.02c-21.22-21.2-21.61-17.81-0.14-38.78c10.5-10.25,21.96-19.51,32.33-29.94
		c-4.62-8.6-7.67-7.17-12.15-3.2c-12.73,11.28-23.99,23.97-35.88,36.05c-8.79,8.93-10.99,8.86-19.76,0.25
		c-20.1-19.72-23.38-19.9-0.6-41.36c7.45-7.02,14.61-14.35,21.73-21.71c4.28-4.44,8.76-8.08,9.73-15.57
		c1.12-8.61,10.98-10.96,18.43-5.12c16.56,12.97,29.73,29.48,44.79,44.04c6.24,6.04,12.74,11.51,20.64,17.84
		c2.85-10.75,5.45-20.57,8.35-31.5c-11.18-1.62-12.39-9.13-10.62-17.68c1.86-9.03,10.83-16.94,20.61-14.74
		c17.71,3.99,32.41-4.72,48.17-8.59c7.29-1.79,11.69-9.17,9.12-16.86c-4.96-14.89-5.51-31.24-15.46-44.59
		c-2.9-3.89-2.56-9.62,1.66-14.05c2.87-3.01,5.12-6.61,8.95-11.67c16.44,6.92,33.27-0.78,50.56-1.97
		c9.96-0.68,19.72-1.26,24.04-13.18c0.97-2.69,2.78-7.04,7.29-7.94c12.46-2.5,13.8-13.29,16.08-22.84
		c3.09-12.98,5.06-26.22,8.07-39.22c3.98-17.22,18.58-27.76,35.7-25.96c1.65,2.96,3.46,6.19,5.36,9.6
		c-6.57,8.37-12.34,17.07-24.7,16.89c-4.72,20.17-9.54,40.77-14.68,62.73c11.53-2.18,16.65-10.01,23.21-14.93
		c9.36-7.03,18.64-14.38,27.69-21.91c3.98-3.31,7.23-6.49,7.04-13.33c-0.17-6.05,2.96-13.48,10.85-13.91
		c2.72-9.44-1.51-18.35,4.13-26.99c-10.82-2.14-19.6-5.83-14.62-19.65c5.72-3.03,11.13-7.77,18.96-7.69
		c8.48,0.09,11.52,3.11,11.05,12.15c-0.64,12.24-3.96,24.11-3.33,36.56c0.82,16.1,3.49,30.58,17.1,41.51
		c11.56,9.28,18.27,23.45,30.87,32.24c5.79-6.6,8.98-15.17,16.53-21.49c-9.05-11.38-9.83-23.48-2.48-35.18
		C450.5,133.87,437.4,113.5,425.2,92.6c-7.55-12.94-5.5-16.65,8.25-23.86c4.55-2.38,8.97-1.78,13.54-2.21
		c5.65-0.53,9.13,2.73,10.86,7.16c1.92,4.92-0.58,9.2-4.87,12c-3.12,2.04-6.57,3.57-10.89,5.88c10.57,16.41,21.21,32.38,31.2,48.75
		c3.33,5.46,7.65,1.32,11.72,3.85c7.31-22.94,7.37-46.02,12.63-68.08c-6.19-2.55-11.37-3.12-15.04-6.84
		c-2.21-13.76-1.36-15.13,11.2-19.14c10.36-3.31,19.76-1.38,28.59,4.67c13.7,9.38,27.46,18.68,41.2,28
		c5.3,3.6,18.66,1.95,23.79-2.84c7.33-6.84,14.72-13.63,22.59-20.92c-7.32-5.77-16.9-6.76-16.26-17.27
		c0.35-5.75,3.86-8.77,8.32-9.89c8.66-2.17,17.56-3.11,24.14,5.59c5.77-5.74,12.51-5.01,20.98-2.24c0,22.69,0,45.48,0,69.8
		c22.64,0,43.82,0.34,64.98-0.17c8.49-0.21,14.95,2.06,21.02,8.07c18.23,18.07,36.9,35.7,56.54,54.6
		c10.35-8.51,22.53-15.37,19.22-32.02c-4.51-22.71,27.08-39.21,44.75-26.1c9.86,7.31,17.31,23.17,13.65,35.18
		c-4.06,13.33-16.94,22.2-31.23,19.76c-10.93-1.86-19.13,0.67-25.6,9.48c-1,1.36-2.39,2.43-3.6,3.64
		c-16.34,16.33-20.34,15.62-35.39-0.9c-14.68-16.12-30.76-30.98-46.38-46.24c-3.35-3.27-7.58-4.94-12.55-4.91
		c-21.02,0.13-42.04,0.06-63.67,0.06c-2.09,8.4-1.1,16.24-0.91,25.6c20.52,0,40.43,0.27,60.32-0.15c6.91-0.14,11.77,1.98,16.7,6.84
		c23.87,23.53,48.15,46.65,73.1,70.7c1.63-9.03-0.95-18.67,5.59-26.95c6.82-8.62,15.84-8.77,24.78-9.32
		c13.3-0.82,22.77,7.62,26.14,21.9c3.24,13.71-3.67,29.86-15.23,35.64c-11.43,5.71-28.03-0.07-39.51-13.84
		c-5.48-0.51-6.3,6.59-12.69,7.22c-14.21-15.51-31.28-29.39-47.21-44.52c-8.49-8.05-17.25-15.82-25.53-24.09
		c-3.82-3.81-8.42-5.28-13.2-5.37c-17.39-0.33-34.79-0.13-52.88-0.13c0,9.39,0,17.76,0,28.14c15.27,0,30.87,0.43,46.43-0.16
		c9.29-0.35,16.06,3.01,22.42,9.4c33.59,33.73,69.37,65.22,102.15,100.11c12.81-2.98,15.4-16.33,24.42-22.83
		c8.12-5.85,11.86-12.42,9.35-24.51c-4.58-22.09,10.2-36.78,31.39-41.12c12.18-2.49,35.58,11.2,34.4,29.12
		c-0.49,7.46,1.99,15.06-1.95,22.41c-6.77,12.63-17.91,18.19-31.17,16.85c-15.78-1.6-25.03,6.06-34.24,17.1
		c-8.69,10.42-19.18,19.33-29.93,29.95c-11.53-10.04-23-20.76-33.83-31.59c-14.35-14.35-29.74-27.64-43.57-42.53
		c-11.6-12.5-24.15-24.11-36.07-36.33c-5.33-5.46-11.25-8.29-19.07-8.06c-13.17,0.39-26.37,0.11-40.13,0.11
		c-2.55,10.94-0.8,21.48-1.02,27.08C756.2,350.34,861.94,456.08,968.3,562.45c9.69-11.08,22.24-21.82,33.96-33.4
		c21.56-21.29,42.31-43.39,63.78-64.78c23.71-23.63,47.97-46.71,71.75-70.26c18.55-18.37,36.77-37.08,55.06-55.72
		c5.13-5.23,9.79-11.28,16.96-13.54c8.95-2.82,10.82,6.44,16.05,10.2c20.01,14.41,35.51,33.28,52.26,50.93
		c1.08,1.13,1.51,2.88,2.53,4.93c-7.84,10.14-15.43,20.2-25.64,26.25c-18.11-18.25-35.67-35.94-53.23-53.63
		c-0.98,0.94-1.96,1.88-2.94,2.83c-3.98,0.2-5.45,3.52-6.89,5.34c15.75,15.72,31.72,31.03,46.85,47.14
		c4.69,4.99,4.85,11.14-1.13,17.49c-20.58,21.82-20.34,22.13-40.83,1.53c-11.73-11.79-23.3-23.73-34.85-35.51
		c-8.11,4.25-3.43,7.48-0.24,10.68c11.45,11.49,22.9,23,34.43,34.42c11.52,11.4,14.01,18.15,0.53,28.96
		c-1.65,1.33-3.05,2.98-4.56,4.49c-11.78,11.75-12.24,11.77-24.29-0.3c-13.86-13.89-27.67-27.82-41.57-41.8
		c-3.72,0.14-4.86,3-7.11,6.12c14.62,14.55,29.4,29.18,44.08,43.89c9.59,9.61,9.56,11.29,0.33,20.69c-2.09,2.13-4.21,4.23-6.34,6.33
		c-12.22,12.03-16.34,12.11-28.02,0.4c-12.95-12.98-25.86-26.01-38.65-38.87c-4.21-0.45-4.38,3.76-8.55,4.6
		c15.18,15.11,29.34,29.11,43.38,43.22c8.89,8.93,8.56,13.17,0.27,22.46c-4.16,4.66-9.77,7.47-13.56,12.72
		c-3.53,4.89-8.9,4.46-13.06-0.34c-14.19-16.35-32.01-29.17-44.87-46.87c-3.75,1-5.64,3.43-7.57,7.74
		c13.77,13.69,27.85,27.65,41.87,41.66c10.29,10.28,10.28,11.65,0.46,21.56c-18.5,18.68-18.45,18.64-37.46,0.38
		c-5.84-5.61-12.68-10.33-17.82-16.49c-5.16-6.18-10.69-11.85-16.74-18.16c-98.02,98.04-195.65,195.68-293.28,293.33
		c-3.02,2.96,2.16,6.57-1.25,11.74c-5.89,8.96-11.38,10.61-19.13,3.29c-4.61-4.35-9.59-8.46-13.97-16.97
		c80.33-80.45,160.67-160.91,241.04-241.4c-15.21-18-15.21-18-1.24-32.99c-2.1-11.53-12.99-16.02-20.21-23.41
		c-29.44-30.17-58.95-60.26-88.68-90.15c-26.48-26.61-53.37-52.8-79.9-79.36c-23.86-23.89-47.44-48.06-71.24-72.02
		C665.06,297.74,660.59,294.14,656.3,290.32z M505.28,190.48c-0.16,15.16,4.88,26.83,7.1,39.05c3.87,21.33,16.48,36.91,37.06,43.43
		c11.41,3.62,23.07,6.95,34.66,10.25c3.42,0.97,6.53,1.49,9.71-0.33c14.01-8.02,18.13-18.93,11.88-33.85
		c-1.54-3.67-1.83-7.43-2.48-10.99c-3.04-16.65-14.1-23.63-29.04-28.66c-8.66-2.92-17.61-4.89-26.25-7.96
		C534.49,196.64,520.26,194.19,505.28,190.48z M246.55,457.44c14.69,8.06,29.84,16.38,45.05,24.73c8.61-9.09,18.17-10.19,28.89-7.02
		c12.58-16.5,24.96-32.73,38.85-50.94c-20.96-8.79-40.68-17.06-59.74-25.06c-6.44,3.62-11.73,7.65-17.61,4.46
		c-13.14,11.86-26.12,23.57-39.55,35.7C247.54,445.66,244.64,451.42,246.55,457.44z M213,330.35c-6.73,2.9-13.63,2.92-19.39,6.76
		c-6,4-15.7,0.43-19.51,8.85c-4.17,9.23,4.88,14.21,8.15,20.6c11.31,22.1,24.12,43.43,36.47,65.27c5.27-3.2,10.6-0.63,14.34-3.43
		c12.53-11.35,25.06-22.69,37.56-34.01c-4.62-7.69-3.76-13.3-1.45-19.02c-11.15-11.12-22.01-21.9-32.81-32.74
		c-2.43-2.44-4.73-5.16-8.59-4.55C221.27,339.09,217.85,334.23,213,330.35z M364.7,268.96c-20.85-6.48-37.35-27.14-63.13-18.39
		c-4.06,1.38-7.96,1.95-10.77,5.39c-10.59,12.94-20.99,26.02-32.66,38.07c-4.62,4.77-9.73,9.66-12.7,17.82
		c23.67,0.55,47.18,11.52,68.09,4.26c19.76-6.86,43.05-13.33,55.11-35.46C367.49,277.24,366.16,273.31,364.7,268.96z M419.57,344.91
		c-11.01-5.69-21.71-3.93-32.01-5.07c-14.91-1.64-28.44-8.13-44.74,3.02c-11.9,8.14-22.43,17.06-32.38,26.92
		c-8.03,7.96-5.41,15.04,5.49,19.38c14.3,5.69,28.46,11.77,44.2,18.31C384.68,391.68,399.55,365.96,419.57,344.91z M438.2,322.37
		c20.15-13.53,39.45-26.48,58.46-39.24c-2.38-9.01-3.45-17.86-12.19-21.77c-8.86-3.97-16.55-9.74-24.29-15.29
		c-4.86-3.48-10.43-4.62-14.03-1.69c-9.48,7.71-20.38,13-30.36,19.78c-6.32,4.29-11.55,9.31-11.09,18.64
		C415.39,295.42,426.49,308.54,438.2,322.37z M631.96,58.38c-0.8-0.37-1.6-0.74-2.4-1.11c-8.51,12.53-19.7,22.53-30.07,33.31
		c-1.83,1.91-3.35,3.76-3,6.6c1.15,9.35-3.5,16.92-7.88,23.95c5.53,24.09,10.88,47.44,16.21,70.66c6.66,0.31,10.65-2.64,14.53-5.98
		c4.1-3.53,8.32-6.93,12.6-10.49C631.96,136.4,631.96,97.39,631.96,58.38z M434.3,352.78c-18.78,19.3-35.23,39.21-50.92,59.69
		c7.83,9.57,18.56,9.59,27.69,13.12c30.53,11.8,30.53,11.8,52.38-13.08C453.18,393.41,446.14,372.47,434.3,352.78z M449.34,333.78
		c21.42,7.36,40.62,13.79,59.67,20.61c6.64,2.37,12.16,2.4,16.94-3.53c3.67-4.55,9.05-7.63,12.22-14.19
		c-8.08-14.7-13.42-31.45-25.29-45.66C491.88,305.15,471.61,318.79,449.34,333.78z M589.8,196.27c-5.88-24.76-8.86-48.62-17.5-72.02
		c-19.6,14.46-37.34,27.56-54.77,40.42c-0.42,4.91-0.99,9.08,0.44,13.47C541.67,182.32,563.89,192.16,589.8,196.27z M513.47,67.79
		c-3.47,23.35-5.88,45.43-10.41,67.07c-1.76,8.43-0.18,12.59,6.77,16.34c16.08-12.2,31.55-24.79,49.01-35.68
		c-4.25-7.19,1.16-16.75-6.12-22C540.27,84.55,527.07,76.62,513.47,67.79z M394.13,481.34c-6.3-16.16-15.19-30.67-23.63-46.25
		c-10.12,13.59-18.56,26.61-28.76,38.07c-7.56,8.49-11.79,16.58-7.56,28.63c11.98-1.23,23.44,3.01,34.68,5.09
		C377.37,498.26,385.39,490.17,394.13,481.34z M375.41,257.36c3.8-26.46,5.41-51.31,6.23-78.55c-17.36,14.2-32.84,26.85-48.3,39.53
		c-4.57,3.75-7.62,8.04-4.34,14.85C343.07,242.25,358.88,248.95,375.41,257.36z M398.12,181.32c-1.04,23.7-3.74,46.91-6.47,72.31
		c19.69,3.23,29.06-14.25,43.64-19.41c-0.25-5.02,0.8-9.48-0.84-12.48C425.7,205.63,409.46,195.95,398.12,181.32z M232.17,300.34
		c17.83-19.98,35.36-38.24,51.02-60.45c-44.57,4.6-56.42,7.51-65.87,16.13C222.42,270.13,224.59,285.46,232.17,300.34z
		 M162.56,364.52c-7.2,10.25-5.74,22.89-11.18,33.39c-1.7,3.29-0.07,7.02,3.9,10.57c10.77,9.62,20.37,20.55,30.21,31.17
		c6.42,6.92,13.56,7.09,21.68,4.43C193.33,416.22,177.21,390.89,162.56,364.52z M318.71,337.07c-0.05-1.47-0.1-2.93-0.15-4.4
		c-24.08,2.77-47.15-6.58-72.96-4.5c11.78,13.51,24.5,23.08,33.46,37.05c5.17-2.57,10.4-1.85,15.46-0.29
		C302.9,355.28,310.8,346.17,318.71,337.07z M419.04,327.48c-7.27-12.19-15.51-21.64-23.01-31.73c-2.43-3.27-8.41-6.25-12.63-3.37
		c-10.85,7.41-21.02,15.81-31.27,26.63C375.65,321.99,397.35,324.73,419.04,327.48z M287.3,500.12
		c-22.27-11.9-40.25-32.98-70.67-29.27c15.96,12.06,26.65,27.91,41.46,39.79C266.93,505.98,277.96,508.95,287.3,500.12z
		 M502.35,252.38c-4.03-17.46-8.06-34.92-12.07-52.27c-4.07-0.45-7.77-0.85-11.79-1.29c-5.18,7.25-10.43,14.6-16.04,22.45
		C469.37,239.33,486.77,243.87,502.35,252.38z M505.99,369.24c-17.9-5.99-35.7-11.94-54.83-18.34c8.22,17.5,15.88,33.79,23.65,50.34
		C484.95,390.82,494.97,380.55,505.99,369.24z M313.28,563.67c3.68-7.64-1.99-12.77-1.04-18.76c2.25-14.14-1.13-25.04-19.12-26.99
		c-6.09,2.23-13.74,5.27-19.33,4.79C286,535.38,299.39,549.26,313.28,563.67z M579.12,296.64c-17.3-2.76-31.87-11.39-49.84-12.11
		c7.91,14.65,13.22,28.34,21.42,39.15C560.04,314.79,568.89,306.37,579.12,296.64z M896.63,268.31c7.09-7.27,9.41-14.6,4.35-23.28
		c-5.95-10.19-15.32-6.32-22.7-6.64c-7.57,6.55-10.67,14.24-6.73,22.14C876.64,270.75,886.76,269.5,896.63,268.31z M623.58,254.09
		c16.06-18.39,5.16-38.6,9.58-58.44c-11.21,7.26-21.85,12.19-18.6,25.92C617.01,231.9,620.21,242.05,623.58,254.09z M389.03,435.18
		c6.31,12.39,11.71,23,16.53,32.48c7.52-6.57,14.43-12.6,22.34-19.5C414.82,443.79,402.85,439.79,389.03,435.18z M329.61,547.3
		c10.04-10.68,18.88-17.65,26.12-27.79c-10.26-4.66-20.59,0.11-30.96-5.75C326.46,525.46,327.79,534.69,329.61,547.3z
		 M836.83,215.92c-3.98-3.46-7.53-5.48-12-6.01c-4.91,2.63-9.18,5.77-10.99,11.75c1.91,5.47,6.19,8.59,10.55,11.46
		c5.2-0.91,9.21-2.83,12.45-6.73C836.83,223.12,836.83,219.78,836.83,215.92z"/>
	<path class="st0" d="M857.76,537.83c-0.65,8.75-4.87,16.57-5.98,25.49c-2.57,20.67-3.49,40.51,5.11,60.22
		c4.45,10.2-6.15,15.7-11.27,20.73c-31.42,30.9-62.57,62.02-93.4,93.51c-20.43,20.86-42.09,40.51-61.76,62.18
		c-4.45,4.91-11.72,5.33-17.96,3.45c-22.42-6.75-44.65-6.32-67.12-0.26c-8.57,2.31-15.12-0.26-21.88-7.58
		c-19.37-20.95-40.24-40.52-60.45-60.7c-33.16-33.1-66-66.52-99.57-99.19c-7.66-7.46-9.71-13.89-6.25-24.06
		c7.5-22.03,6.76-44.9,1.7-67.19c-1.76-7.76,0.83-10.91,5.19-15.8c20.06-22.5,42.23-42.88,63.37-64.3
		c32.58-33.02,65.89-65.31,98.63-98.19c6.62-6.65,12.31-8.86,22.01-5.23c20.12,7.53,41.26,7.57,61.4-0.02
		c9.69-3.65,15.28-1.18,21.87,5.42c34.66,34.76,69.93,68.9,104.41,103.83c19.16,19.41,39.36,37.8,57.48,58.29
		C856.11,531.66,857.68,533.94,857.76,537.83z M673.41,778.86c52.76-52.75,104.84-104.82,156.68-156.64
		c-8.01-26.5-9.71-53.45,1.89-79.39C779.21,490.07,727.08,437.96,675.2,386.1c-24.18,4.78-48.57,4.76-72.67,0.07
		c-52.72,52.71-105.74,105.72-157.76,157.74c-0.01,25.18,4.08,49.87-3.59,73.2c54.24,54.24,108.15,108.15,162.14,162.15
		C626.46,771.55,650.17,771.9,673.41,778.86z"/>
	<path class="st0" d="M968.37,460.25c-13.35-15.04-26.4-29.76-41.18-46.43c-9.55,10.19-17.06,18.78-25.2,26.73
		c-11.5,11.23-28.58,9.13-36.84-4.42c1.57-4.41,4.31-9,9.44-8.35c13.3,1.67,20.64-5.91,27.63-15.26c2.49-3.33,6.36-5.65,10.74-9.4
		c-14.99-16.01-32.18-27.87-46.31-45.89c32.17-36.51,69.87-68.1,104.33-103.57c-4.92-5.55-8.69-11.34-13.86-15.3
		c-9.63-7.37-8.54-17.42-6.59-26.57c1.97-9.28,9.43-13.75,19.5-15.21c8.42-1.22,13.46,2.87,18.5,7.56c3.64,3.39,6.25,7.88,9.32,11.9
		c-2.64,5.33-5.57,9.98-11.59,12.19c-5.57-4.07-7.74-13.6-19.28-10.49c5.85,13.85,18.05,21.48,26.13,32.49
		c0.6,7.06-4.05,11.52-8.66,15.88c-26.21,24.78-50.49,51.54-77.7,75.3c-5.03,4.39-10.5,8.72-12.72,16.69
		c35.09,34.19,70.7,68.88,106.53,103.79c14.33-15.28,27.43-29.23,41.27-43.99c-18.74,0.04-26.38-14.9-38.04-24.24
		c-4.39,0.21-9.01,0.06-13.52,0.71c-9.85,1.43-16.14-5.02-18.94-11.95c-2.54-6.27-3.65-14.74,2.72-21.46
		c6.51-6.88,14.14-9.35,22.96-7.12c6.86,1.74,14.21,7.25,15.08,12.63c2.42,14.95,15.3,20.2,23.01,29.89
		c9.58,1.52,19.68-1.93,28.03,5.64c8.95,8.11,9.09,11.39,0.72,21c-16.87,19.37-35.46,37.05-53.53,55.25
		c-3.94,3.96-7.04,7.61-7.05,14.06c-0.01,10.06-10.31,22.32-19.54,24.79c-12.17,3.26-23.06,1.73-31.75-8.66
		c-15.23-18.21-9.85-38.35,12.41-45.96C966.32,461.84,968.02,460.46,968.37,460.25z M970.08,501.97c7.44-1.3,13.67-4.27,14.17-11.12
		c0.42-5.74-3.94-10.46-9.91-12.26C959.48,487.49,958.71,491.5,970.08,501.97z"/>
	<path class="st0" d="M238.03,721.2c0.09-1.98-0.33-3.57,0.28-4.48c9.66-14.42,21.72-26.51,36.19-36.08
		c4.42-2.93,7.92-0.02,10.95,2.96c15.06,14.8,30.08,29.65,45.06,44.54c5.59,5.56,10.95,11.34,16.54,16.9
		c5.25,5.22,5.12,10.16-0.13,15.32c-9.41,9.25-18.68,18.64-28.05,27.92c-6.16,6.1-12.33,5.93-18.43-0.17
		c-19.57-19.55-39.13-39.12-58.76-58.62C239.11,726.93,237.48,724.22,238.03,721.2z M276.18,710.91c-2.53,2.38-6.21,5.84-7.95,7.48
		c14.59,14.87,28.7,29.26,42.96,43.81c2.95-2.29,6.55-5.12,8.51-8.96C305.3,739.24,291.12,725.44,276.18,710.91z"/>
	<path class="st0" d="M1012.52,676.07c10.41,11.19,23.59,20.04,32.98,32.8c3.54,4.82,5.18,10.12,0.75,14.6
		c-22.66,22.94-45.63,45.58-68.85,68.67c-16.34-9.39-26.31-24.3-39.19-35.87c-3.16-2.84-3.23-10.59,1.38-15.21
		c20.55-20.61,41.09-41.23,61.91-61.56C1003.64,677.4,1007.02,675.5,1012.52,676.07z M965.83,750.51c2.93,2.31,5.12,7.8,8.63,8.28
		c15.54-14.79,29.89-28.44,45-42.82c-4.03-3.01-6.29-7.69-13.71-10.53C993.1,719.73,980.05,734.46,965.83,750.51z"/>
	<path class="st0" d="M1002.14,621.66c3.69,10.13-0.02,16.42-7.02,22.91c-15.04,13.94-29.15,28.87-43.64,43.4
		c-16.91,16.95-33.35,34.4-50.9,50.66c-9.8,9.08-17.97,19.62-27.89,28.53c-6.68,6-12.85,7.33-19.51,0.4
		c-5.25-5.47-3.53-10.06,0.75-15.54c11.95-15.3,27.31-27.17,40.43-41.32c20.97-22.62,43.93-43.4,65.47-65.51
		c6.28-6.44,13.5-11.8,19.22-19.1C984.06,619.66,992.7,616.36,1002.14,621.66z"/>
	<path class="st0" d="M726.38,263.4c8.88,5.44,15.3,13.99,22.89,21.19c19.67,18.64,39.63,37.01,58.49,56.44
		c6.4,6.6,13.19,3.65,19.57,4.26c21.58,2.08,33.44,23.8,22.28,42.23c-6.95,11.47-19.23,16.85-33.9,14.27
		c-12.43-2.19-17.66-12.06-21.62-22.39c-2.59-6.74,2.2-12.86,3.65-20.86c-11.84-11.81-24.36-24.56-37.17-37.02
		c-13.74-13.36-25.65-28.47-40.49-40.83C713.26,275.01,715.38,270.05,726.38,263.4z M833.75,367.34c-4.91-2.6-9.81-7.01-16.15-0.98
		c-3.93,3.74-5,7.99-2.14,12.26c2.6,3.88,6.7,7.01,11.78,4.93C834.12,380.73,835.97,375.11,833.75,367.34z"/>
	<path class="st0" d="M1016.64,279.48c11.12,11.58,22.57,23.49,33.73,35.11c15.92-4.51,30.05,0.92,37.7,12.96
		c7.25,11.42,6.56,24.91-8.67,38.48c-9.89,8.8-21.69,10.69-32.21,3.96c-14.97-9.58-19.34-23.6-12.58-44.68
		c-7.56-7.11-16.03-14.77-24.16-22.78C999.43,291.68,1000.53,287.11,1016.64,279.48z"/>
	<path class="st0" d="M662.91,906.71c1.84,8.61-0.99,16.53-9.18,23.16c-9.06,7.34-17.27,8.59-27.25,2.43
		c-10.77-6.65-17.44-33.46-10.44-43.97c2.98-4.48,6.86-8.75,13.54-7.76c2.92,0.43,5.97,0.31,8.93,0.03
		C658.28,878.77,664.98,885.09,662.91,906.71z"/>
	<path class="st0" d="M688.97,222.72c13.32-2.42,25.21,14.11,25.28,24.13c0.09,10.96-12.06,24.16-22.67,24.47
		c-13.63,0.4-28.14-12.32-28.5-24.99C662.76,234.96,676.26,222.64,688.97,222.72z M696.34,247.11c0.34-4.18-0.56-8.44-6.75-8.95
		c-4.8-0.4-8.18,1.19-8.58,6.61c-0.45,5.97,2.81,9.82,8.07,10.89C694.36,256.73,696.3,252.85,696.34,247.11z"/>
	<path class="st0" d="M720.12,910.73c-1.74-10.74-6.97-22.19,5.7-29.31c5.85-3.29,10.77,0.69,13.52,5.86
		c4.1,7.69,6.02,16.05-0.32,23.44C733.62,917.03,727.11,917.57,720.12,910.73z"/>
	<path class="st0" d="M906.29,104.78c-10.07,12.74-18.98,13.22-30.03,2.3c-4.33-4.28-4.38-9.32-2.33-13.91
		c2.2-4.93,7.03-7.83,12.56-5.71C895.11,90.76,905.05,93.09,906.29,104.78z"/>
	<path class="st0" d="M535.34,47.59c1.83-2.84,3.65-5.68,5.39-8.39c27.83-3.04,27.83-3.04,27.25,15
		C550.77,66.76,542.19,65.02,535.34,47.59z"/>
	<path class="st0" d="M554.3,928.68c-8.01,1.86-13.36-0.27-16.76-6.86c-4.53-8.78-3.34-16.88,2.67-24.7
		c5.33-1.54,10.58-2.1,16.65,0.91C557.83,908.16,562.2,918.6,554.3,928.68z"/>
	<path class="st0" d="M839.21,89.6c-11.62-0.06-19.74-5.21-19.97-12.67c-0.2-6.62,6.07-13.12,12.35-12.79
		c11.84,0.61,21.21,8.22,20.88,16.97C852.18,88.7,850.67,89.66,839.21,89.6z"/>
	<path class="st0" d="M552.54,959.65c5.2-4.34,6.38-14.95,15.65-10.78c8.1,3.64,14.76,10.23,15.46,20.36
		c0.42,6.02-3.01,10.86-8.26,10.82C563.37,979.96,558.02,970.53,552.54,959.65z"/>
	<path class="st0" d="M742.23,51.27c-8.97,11.41-13.08,12.54-25.16,7.54c-6.41-2.66-9.02-7.34-7.82-13.93
		c1.13-6.21,5.15-9.11,11.58-9.07C733.68,35.89,739,39.62,742.23,51.27z"/>
	<path class="st0" d="M656.95,53.75c-4.2-7.2-9.47-14.15-0.72-20.54c9.27-6.78,21.92-2.81,29.72,8.51
		c0.75,5.53-6.28,6.58-5.65,11.69c-2.61,0.15-4.28,0.32-5.95,0.33C668.86,53.77,663.38,53.75,656.95,53.75z"/>
	<path class="st0" d="M775.87,45.75c6.48,2.13,12.39,4.07,18.62,6.12c4.13,5.98,4.3,12.42,0.34,18.97
		c-10.34,2.37-19.92,0.82-28.81-5.85c-1.02-3.81-0.73-7.98-0.11-12.19C769.01,50.6,772.04,48.45,775.87,45.75z"/>
	<path class="st0" d="M921.91,124.69c10.32-11.89,20.33-12.25,29.63-0.33c3.22,4.12,5.71,9.37,1.14,14.85
		c-4.22,5.06-10.05,6.07-14.72,3.16C931.21,138.16,922.93,134.45,921.91,124.69z"/>
	<path class="st0" d="M704.32,965.81c-2.65-9.16,1.74-21.62,9.47-27.04c3.96-2.78,7.75-2.65,11.55,0.34
		c6.15,4.84,5.42,11.6,3.34,17.39C724.46,968.21,717.16,970.57,704.32,965.81z"/>
	<path class="st0" d="M675.69,975.09c13.28,2.45,14.6,9.91,12.33,19.3c-15.83,10.66-23.85,11.98-28.43,4.14
		c-3.26-5.58-3.05-11.57,2.62-15.78C666.49,979.58,672.29,979.08,675.69,975.09z"/>
	<path class="st0" d="M634.48,996.56c-1.95,2.82-4.04,5.85-6.26,9.07c-7.84,0.79-15.83,1.77-22.44-4.42
		c-3.62-3.4-7.43-6.46-4.38-12.59c2.82-5.65,7.89-8.96,12.89-7.62C622.63,983.25,632.92,984.5,634.48,996.56z"/>
	<path class="st0" d="M971.26,153.96c10.27-6.46,20.94-4.34,27.22,5.36c2.7,4.17,3.89,8.31,0.59,12.78
		c-3.13,4.24-7.36,5.56-12.31,4.6C975.83,174.58,969.87,165.74,971.26,153.96z"/>
	<path class="st0" d="M1079.89,255.12c-3.69,0.87-5.97,3.41-8.27,5.4c-13.63-7.29-20.53-16.16-17.81-22.89
		c2.3-5.69,5.46-10.76,12.83-9.65C1074.07,229.11,1080.45,241.81,1079.89,255.12z"/>
	<path class="st0" d="M1088.04,284.58c-0.66-5.12,2.78-7.73,6.66-9.67c3.73-1.87,7.42-1.53,10.31,1.96
		c3.4,4.11,7.37,7.21,9.29,13.08c2.25,6.85,0.18,11.08-4.48,13.73c-4.37,2.49-10.31,2.42-13.72-2.64
		C1092.7,296.02,1087.13,291.87,1088.04,284.58z"/>
	<path class="st0" d="M1044.6,206.7c-3.48,8.29-9.85,10.41-16.81,7.49c-6.94-2.91-11.72-8.97-13.91-16.37
		c-1.3-4.39,1.88-7.48,5.11-9.43c4.16-2.52,9.08-2.81,13.06,0.44C1037.6,193.37,1042.78,198.4,1044.6,206.7z"/>
	<path class="st0" d="M1119.42,328.55c4.61-5.26,10.01-7.45,16.05-2.58c6.62,5.33,9.27,18.18,6.49,24.48
		c-2.48,5.61-6.6,6.33-11.29,4.92C1122.56,352.92,1118.3,342.25,1119.42,328.55z"/>
	<path class="st0" d="M191.91,287.4c-5.77,8.49-6.4,21.59-20.31,19.41c-5.24-0.82-8.56-5.45-7.71-11.41
		c1.26-8.89,5.92-16.05,14.55-18.39C185.58,275.08,189.73,280.37,191.91,287.4z"/>
	<path class="st0" d="M305.15,152.52c3.42,13.36-0.87,22.22-12.53,26.24c-4.43,1.53-8.37,0.1-11.3-3.52
		c-2.93-3.61-5.51-7.54-2.14-12.17C285.4,154.51,292.39,147.44,305.15,152.52z"/>
	<path class="st0" d="M261.6,190.93c3.62,13.03-2.21,24.02-13.67,26.54c-4.79,1.06-8.41-1.11-10.81-4.88
		c-2.65-4.16-2.88-9.05,0.05-13.03C243.02,191.65,250.17,186.19,261.6,190.93z"/>
	<path class="st0" d="M637.09,657.92c-36.7,0.84-68.95-31.45-69.04-69.41c-0.08-33.17,29.11-69.2,69.84-68.67
		c40.98,0.53,69.95,30.55,70.07,68.65C708.07,624.52,681.52,658.42,637.09,657.92z M638.15,634.88
		c24.19,0.34,45.45-21.5,44.92-46.15c-0.52-24.1-20.2-44.73-43.75-45.87c-22.38-1.09-47.03,22.05-47.73,44.8
		C590.85,611.78,613.28,634.52,638.15,634.88z"/>
	<path class="st0" d="M656.64,581.08c2.16,4.77,1.45,9.71,0.56,14.82c-9.29,8.7-20.66,6.32-31.15,4.87
		c-8.52-1.18-10.01-7.98-5.97-20.79C632.1,575.79,644.32,573.3,656.64,581.08z"/>
</g>
</svg>
